<?xml version="1.0" encoding="UTF-8"?>
<!DOCTYPE svg PUBLIC "-//W3C//DTD SVG 1.1//EN" "http://www.w3.org/Graphics/SVG/1.1/DTD/svg11.dtd">
<!-- Creator: CorelDRAW 2021 (64-Bit Evaluation Version) -->
<svg xmlns="http://www.w3.org/2000/svg" xml:space="preserve" width="52.593mm" height="16.4428mm" version="1.1" style="shape-rendering:geometricPrecision; text-rendering:geometricPrecision; image-rendering:optimizeQuality; fill-rule:evenodd; clip-rule:evenodd"
viewBox="0 0 2146.04 670.94"
 xmlns:xlink="http://www.w3.org/1999/xlink"
 xmlns:xodm="http://www.corel.com/coreldraw/odm/2003">
 <defs>
  <style type="text/css">
   <![CDATA[
    .fil0 {fill:#FFF8DE;fill-rule:nonzero}
   ]]>
  </style>
 </defs>
 <g id="Layer_x0020_1">
  <metadata id="CorelCorpID_0Corel-Layer"/>
  <path class="fil0" d="M187.48 528.1c114,0 208.76,-91.34 208.76,-206.02 0,-107.13 -81.72,-184.05 -187.48,-184.05 -115.37,0 -208.77,90.65 -208.77,206.02 0,107.81 81.72,184.05 187.48,184.05zm0.69 -82.41c-57,0 -94.08,-41.89 -94.08,-100.27 0,-68.67 47.39,-124.98 114,-124.98 56.31,0 94.08,41.89 94.08,100.27 0,68.67 -48.07,124.98 -114,124.98zm341.31 74.17l27.47 -201.21c9.62,-63.87 48.07,-96.83 98.89,-96.83l32.28 0 10.99 -79.66 -21.98 0c-45.32,0 -82.41,13.73 -107.81,54.94l6.87 -50.82 -85.16 0 -43.29 309.83 81.74 63.76zm333.06 151.08c105.76,0 187.48,-67.3 200.52,-162.07l43.38 -313.74 6.75 -48.86 -85.84 0 -5.49 42.58c-27.47,-32.96 -70.73,-50.82 -120.87,-50.82 -108.5,0 -192.28,83.78 -192.28,195.03 0,100.26 71.42,171.69 171,171.69 37.77,0 70.73,-10.3 96.83,-31.59l-4.81 32.96c-6.87,49.45 -49.45,82.41 -102.32,82.41 -48.76,0 -80.35,-21.29 -87.22,-55.62 -6.44,5.03 -73.93,57.62 -73.91,57.65 25.57,48.3 83.73,80.38 154.26,80.38zm29.53 -249.28c-53.56,0 -89.96,-37.09 -89.96,-90.65 0,-62.49 47.38,-110.56 107.81,-110.56 54.25,0 88.59,38.46 88.59,92.02 0,59.06 -43.95,109.19 -106.45,109.19zm343.37 98.2l72.8 -519.86 -90.65 0 -63.87 456.11 81.72 63.75zm141.47 -415.48l91.33 0 13.05 -96.14 -90.65 0 -13.73 96.14zm32.96 415.48l52.19 -373.58 -90.65 0 -43.28 309.83 81.74 63.76zm124.79 0.92l-1.11 3.29 -0.95 2.6 -0.67 1.73 -0.57 1.39 -0.62 1.45 -1.14 2.47 -0.4 0.82 -0.45 0.9 -0.51 1 -0.22 0.41 -0.19 0.36 -0.2 0.36 -0.21 0.39 -0.17 0.3 -0.17 0.32 -0.23 0.4 -1.19 2.07 -1.01 1.64 -0.99 1.55 -1.09 1.62 -1.49 2.11 -1.44 1.92 -1.18 1.49 -1.39 1.69 -2.01 2.3 -2.44 2.6 -2.63 2.59 -2.35 2.16 -3.3 2.78 -3.55 2.73 -4.05 2.81 -4.46 2.76 -4.55 2.5 -4.26 2.08 -6.04 2.55 -6.88 2.4 -5.93 1.66 -5.9 1.31 -6.73 1.11 -7.26 0.76 -7.98 0.33 -8.59 -0.16 -8.17 -0.6 -6.5 -0.82 -5.74 -1.02 -6.52 -1.52 -7.64 -2.35 -7.24 -2.91 -5.35 -2.67 -4.92 -2.93 -4.69 -3.32 -4.47 -3.77 -4.37 -4.47 -1.89 -2.23 -2.86 -3.85 -1.52 -2.35 -2.18 -3.86 -1.6 -3.33 -1.53 -3.8 -0.95 -2.78 -0.94 -3.3 -0.5 -2.09 -0.31 -1.48 -73.89 57.56 1.12 2.11 1.14 2.04 1.33 2.26 1.39 2.26 1.24 1.92 1.54 2.3 1.32 1.89 1.2 1.66 1.21 1.61 1.49 1.93 1.8 2.23 1.5 1.78 1.83 2.09 1.35 1.49 1.82 1.94 1.53 1.57 1.04 1.04 1.58 1.54 3.61 3.35 4.04 3.49 3.69 2.97 3.9 2.93 3.51 2.49 4.74 3.13 3.85 2.37 4.13 2.38 4.09 2.21 3.68 1.86 4.37 2.07 3.84 1.7 4.45 1.84 5.44 2.06 4.85 1.68 5.23 1.64 5.18 1.47 4.85 1.24 4.54 1.04 6.45 1.3 5.25 0.9 6.8 0.97 5.41 0.61 7.97 0.66 5.49 0.29 6.77 0.18 6.27 -0.01 7.48 -0.22 7.98 -0.49 8.2 -0.78 8.5 -1.13 5.35 -0.87 5.52 -1.04 5.79 -1.24 5.64 -1.38 4.82 -1.3 4.7 -1.39 4.06 -1.29 5 -1.71 4.84 -1.8 5.15 -2.06 4.35 -1.87 4.64 -2.13 4 -1.95 5.11 -2.65 5.82 -3.26 5.8 -3.52 4.7 -3.06 4.79 -3.32 4.09 -3.01 4.15 -3.24 3.52 -2.89 3.15 -2.71 2.85 -2.56 3.86 -3.65 2.86 -2.85 2.75 -2.85 3.48 -3.8 2.93 -3.38 2.4 -2.89 2.85 -3.61 2.58 -3.44 3.25 -4.59 3.09 -4.66 2.71 -4.37 3.06 -5.29 2.76 -5.17 2.62 -5.34 2.72 -6.07 1.76 -4.27 1.2 -3.09 1.24 -3.39 1.36 -3.99 1.42 -4.53 0.95 -3.31 0.85 -3.15 0.84 -3.37 0.76 -3.34 0.85 -4.07 40.72 -292.95 82.41 0 11.67 -80.35 -83.09 0 1.38 -9.61c6.18,-42.58 33.65,-57.69 75.54,-57.69 4.81,0 13.05,0 21.29,1.38l5.49 -76.23c-8.92,-2.06 -23.35,-4.12 -37.08,-4.12 -83.09,0 -140.78,46.7 -154.52,133.23l-2.06 13.05 -65.93 0 -10.99 80.35 65.24 0 -38.28 270.35 -1.12 7.71 -0.47 2.97 -0.69 3.5 -0.22 1.14 -0.33 1.72 -0.27 1.31 -0.38 1.55 -0.33 1.32 -0.69 2.58zm423.22 7.32c69.3,0 127.73,-30.56 157.46,-77.58l0 0 -64.06 -50.16c-18.54,28.16 -49.44,48.76 -91.33,48.76 -52.88,0 -88.59,-32.96 -91.34,-90.65l269.89 0c4.12,-17.17 7.56,-35.02 7.56,-51.5 0,-93.4 -61.12,-168.94 -171.69,-168.94 -112.62,0 -197.78,93.4 -197.78,207.39 0,103.01 70.73,182.67 181.3,182.67zm15.8 -315.9c47.38,0 78.97,32.27 78.29,77.6l-175.8 0c13.73,-46.01 43.95,-77.6 97.52,-77.6z"/>
 </g>
</svg>
